<?xml version="1.0" standalone="no"?>
<!DOCTYPE svg PUBLIC "-//W3C//DTD SVG 20010904//EN"
 "http://www.w3.org/TR/2001/REC-SVG-20010904/DTD/svg10.dtd">
<svg version="1.0" xmlns="http://www.w3.org/2000/svg"
 width="1353.000000pt" height="1394.000000pt" viewBox="0 0 1353.000000 1394.000000"
 preserveAspectRatio="xMidYMid meet">

<g transform="translate(0.000000,1394.000000) scale(0.100000,-0.100000)"
fill="#000000" stroke="none">
<path d="M6782 13620 c-7 -12 -23 -20 -40 -20 -15 0 -40 -7 -57 -16 -16 -8
-61 -24 -100 -35 -38 -11 -99 -29 -135 -39 -36 -11 -87 -26 -115 -34 -49 -14
-99 -33 -162 -62 -17 -8 -46 -17 -65 -20 -18 -4 -37 -10 -43 -14 -5 -4 -28
-13 -50 -20 -59 -18 -165 -60 -205 -81 -19 -11 -42 -19 -50 -19 -9 0 -20 -4
-25 -9 -6 -4 -52 -25 -104 -45 -51 -21 -115 -51 -142 -67 -28 -16 -54 -29 -59
-29 -14 0 -140 -62 -146 -71 -3 -5 -13 -9 -23 -9 -20 0 -157 -66 -166 -80 -3
-6 -13 -10 -22 -10 -8 0 -26 -9 -40 -20 -14 -11 -32 -20 -40 -20 -8 0 -26 -9
-40 -20 -14 -11 -32 -20 -39 -20 -7 0 -32 -13 -56 -29 -24 -16 -79 -48 -123
-71 -103 -54 -298 -169 -400 -235 -44 -29 -93 -60 -110 -69 -48 -27 -99 -58
-159 -98 -31 -21 -74 -50 -97 -65 -23 -16 -59 -39 -80 -53 -101 -67 -226 -154
-245 -171 -11 -11 -39 -32 -62 -47 -87 -58 -417 -309 -523 -397 -36 -31 -100
-82 -142 -114 -84 -63 -123 -96 -286 -239 -184 -162 -231 -204 -335 -302 -56
-52 -126 -117 -156 -145 -90 -81 -378 -372 -485 -490 -55 -60 -129 -141 -165
-180 -36 -39 -99 -111 -140 -160 -41 -49 -91 -107 -110 -129 -20 -23 -69 -86
-110 -141 -41 -55 -102 -135 -135 -177 -78 -100 -115 -151 -197 -269 -36 -54
-85 -122 -107 -153 -23 -30 -41 -59 -42 -63 0 -4 -16 -28 -34 -53 -19 -25 -49
-70 -66 -100 -18 -30 -56 -91 -84 -135 -29 -44 -71 -109 -94 -145 l-43 -65 7
-155 c19 -481 43 -893 54 -961 5 -30 12 -101 16 -159 4 -58 22 -197 41 -309
19 -112 34 -220 34 -240 0 -20 7 -72 15 -116 8 -44 20 -120 26 -170 5 -49 15
-105 20 -123 6 -18 9 -39 6 -46 -6 -16 17 -152 42 -248 11 -40 22 -93 26 -118
4 -25 13 -67 22 -93 8 -26 18 -71 23 -100 4 -29 13 -74 20 -102 16 -65 86
-326 105 -390 8 -27 28 -102 44 -166 17 -63 39 -135 50 -160 12 -24 21 -58 21
-75 0 -16 4 -34 10 -40 5 -5 16 -36 24 -69 19 -77 40 -141 76 -235 16 -41 34
-95 41 -120 6 -25 15 -50 20 -56 5 -6 35 -89 68 -185 33 -96 72 -205 86 -244
15 -38 30 -83 36 -99 16 -53 82 -210 101 -241 10 -16 18 -36 18 -43 0 -8 7
-28 15 -45 8 -18 30 -70 49 -117 44 -110 175 -408 213 -485 17 -33 45 -94 64
-135 18 -41 44 -90 56 -109 13 -19 23 -38 23 -43 0 -9 65 -153 80 -178 5 -8
26 -46 45 -85 20 -38 58 -110 85 -160 26 -49 61 -115 76 -145 15 -30 35 -64
45 -75 15 -19 29 -43 61 -105 7 -14 29 -51 50 -82 21 -31 38 -60 38 -63 0 -3
20 -36 43 -73 24 -37 55 -85 68 -107 13 -22 38 -59 56 -83 18 -24 33 -49 33
-56 0 -7 8 -21 19 -30 10 -9 67 -89 127 -178 94 -138 115 -164 159 -189 27
-16 57 -29 66 -29 9 0 79 -20 155 -44 77 -24 184 -56 239 -71 112 -30 244 -68
290 -83 44 -15 162 -43 220 -53 28 -4 68 -15 90 -23 22 -8 55 -15 73 -16 18 0
60 -9 94 -21 66 -22 362 -84 593 -125 76 -14 162 -31 190 -39 27 -8 84 -17
125 -21 41 -3 100 -12 130 -19 30 -8 100 -17 155 -20 55 -4 127 -13 160 -20
33 -7 110 -16 170 -20 61 -3 146 -13 190 -20 225 -38 1936 -38 2130 0 39 8
115 16 170 20 55 3 125 12 155 19 30 8 96 17 147 20 50 4 113 13 140 20 26 8
80 17 118 20 39 4 99 15 135 25 36 10 94 24 130 30 164 30 555 114 583 126 18
7 52 16 77 19 25 4 79 15 120 26 41 10 120 28 175 40 55 12 136 32 180 46 76
22 215 57 475 119 63 15 126 33 140 40 14 7 48 16 75 19 65 10 148 47 169 77
9 13 37 56 63 94 25 39 59 85 75 103 15 18 37 49 48 70 12 20 31 51 43 69 12
17 45 68 72 113 28 45 69 110 92 144 41 59 105 165 130 216 7 14 26 45 43 70
52 80 270 484 355 660 26 52 76 156 112 230 37 74 72 149 79 165 7 17 24 56
38 87 15 31 26 60 26 63 0 4 8 19 18 33 10 15 33 68 52 117 31 84 108 270 150
360 10 22 32 81 49 130 16 50 42 122 56 160 15 39 55 151 90 250 34 99 72 202
84 228 11 27 21 55 21 63 0 7 11 46 24 86 13 40 33 107 45 148 12 41 27 89 33
105 12 34 92 316 109 385 6 25 25 90 42 145 16 55 36 127 43 160 7 33 25 110
39 170 14 61 30 137 36 170 5 33 18 89 28 125 23 77 65 266 81 365 24 141 50
323 69 470 11 83 27 188 35 235 9 47 23 166 31 265 9 99 23 204 32 233 14 47
16 125 17 600 1 534 1 548 -19 568 -11 12 -47 66 -80 119 -76 122 -200 308
-268 402 -29 39 -79 109 -111 155 -33 45 -78 104 -100 129 -23 26 -56 66 -74
90 -63 86 -303 375 -433 524 -90 102 -417 440 -700 724 -379 380 -574 556
-876 796 -232 185 -259 205 -321 248 -30 21 -73 53 -96 71 -23 18 -51 39 -62
47 -71 47 -150 103 -154 108 -10 12 -147 101 -155 101 -5 0 -29 17 -54 38 -25
21 -54 41 -64 45 -9 4 -57 32 -105 63 -207 135 -271 174 -280 174 -4 0 -32 17
-62 38 -31 21 -96 60 -145 87 -50 26 -97 53 -105 60 -8 8 -47 30 -85 49 -39
20 -79 42 -90 48 -74 46 -129 76 -273 149 -89 46 -172 90 -185 96 -12 7 -29
13 -38 13 -9 0 -22 7 -29 15 -7 8 -18 15 -24 15 -6 0 -33 11 -61 25 -27 13
-55 25 -61 25 -6 0 -19 9 -28 19 -16 18 -55 36 -266 126 -47 20 -89 41 -95 46
-5 5 -15 9 -23 9 -8 0 -33 9 -56 19 -23 11 -75 32 -116 47 -41 15 -102 40
-135 55 -56 27 -328 119 -350 119 -6 0 -26 8 -45 19 -19 10 -58 24 -87 30 -28
7 -54 19 -57 27 -8 21 -39 17 -54 -6z m163 -280 c66 -22 129 -45 140 -50 18
-8 92 -35 284 -101 30 -11 74 -30 97 -44 23 -14 48 -25 54 -25 10 0 55 -18
185 -75 17 -7 62 -25 100 -40 39 -15 77 -33 86 -41 8 -8 19 -14 23 -14 21 0
682 -342 836 -432 46 -28 95 -54 108 -59 13 -5 47 -24 76 -43 28 -18 117 -72
197 -120 81 -47 152 -93 159 -101 7 -8 18 -15 24 -15 14 0 519 -334 581 -384
22 -18 76 -57 120 -87 70 -49 254 -186 355 -266 146 -115 143 -113 484 -418
344 -309 1073 -1065 1316 -1365 63 -78 140 -173 170 -210 108 -134 209 -268
313 -415 59 -83 121 -170 140 -195 18 -25 49 -71 67 -104 19 -32 42 -68 50
-81 8 -13 32 -50 53 -83 l37 -60 0 -114 c0 -63 -4 -171 -10 -239 -5 -68 -17
-239 -25 -379 -8 -140 -22 -291 -30 -335 -8 -44 -19 -145 -26 -225 -6 -80 -13
-148 -15 -151 -2 -4 -13 -84 -24 -179 -11 -95 -22 -176 -25 -180 -2 -4 -9 -50
-15 -101 -9 -89 -52 -317 -87 -459 -8 -36 -19 -92 -24 -125 -5 -33 -16 -80
-23 -105 -8 -25 -18 -70 -22 -100 -3 -30 -13 -73 -21 -95 -13 -36 -34 -120
-63 -255 -15 -70 -49 -194 -85 -315 -18 -60 -43 -146 -55 -190 -13 -44 -31
-107 -41 -140 -9 -33 -21 -76 -24 -95 -4 -19 -13 -45 -20 -56 -8 -12 -20 -45
-29 -75 -12 -47 -48 -159 -111 -354 -9 -27 -26 -70 -37 -95 -19 -42 -36 -89
-109 -305 -17 -49 -34 -94 -39 -100 -4 -5 -23 -48 -40 -95 -18 -47 -41 -104
-51 -127 -11 -23 -19 -47 -19 -53 0 -7 -16 -40 -35 -74 -19 -35 -35 -69 -35
-77 0 -8 -8 -30 -19 -49 -10 -19 -22 -46 -26 -60 -4 -14 -34 -79 -65 -145 -31
-66 -72 -154 -90 -195 -18 -41 -36 -79 -40 -85 -10 -13 -75 -143 -136 -270
-26 -55 -53 -107 -59 -115 -7 -8 -35 -58 -62 -110 -26 -52 -74 -138 -106 -192
-31 -53 -57 -99 -57 -102 0 -4 -20 -37 -43 -74 -46 -71 -103 -163 -121 -197
-16 -30 -140 -218 -273 -415 l-78 -115 -85 -26 c-47 -14 -139 -39 -205 -54
-66 -15 -163 -40 -215 -55 -52 -16 -111 -31 -130 -35 -19 -4 -57 -13 -85 -20
-27 -8 -104 -26 -170 -40 -66 -15 -149 -35 -185 -46 -36 -10 -99 -26 -140 -35
-41 -9 -113 -24 -160 -35 -47 -10 -119 -25 -161 -33 -41 -8 -109 -24 -150 -36
-78 -21 -103 -27 -289 -60 -175 -31 -296 -51 -395 -65 -49 -7 -128 -20 -175
-28 -236 -44 -897 -87 -1325 -87 -429 0 -1188 46 -1400 86 -44 8 -118 19 -165
24 -47 5 -141 19 -210 29 -69 11 -154 25 -190 30 -163 26 -215 35 -360 67 -85
19 -195 43 -245 54 -190 40 -292 63 -345 77 -59 15 -162 41 -275 68 -38 9 -88
23 -110 30 -22 7 -56 16 -75 20 -19 3 -82 22 -140 40 -58 19 -139 43 -180 55
-98 27 -169 49 -202 62 -25 9 -71 66 -185 228 -82 117 -294 457 -322 517 -5
11 -15 24 -20 28 -6 3 -19 23 -30 43 -26 52 -88 167 -126 232 -46 80 -225 431
-247 485 -6 16 -24 50 -38 75 -25 43 -120 252 -120 263 0 3 -26 61 -59 129
-32 68 -61 134 -65 148 -4 14 -13 39 -21 55 -59 130 -97 220 -119 278 -54 141
-79 202 -87 213 -5 7 -16 34 -23 60 -8 27 -23 74 -34 104 -12 30 -36 98 -55
151 -19 52 -39 104 -45 115 -17 33 -155 453 -187 569 -7 28 -18 64 -24 80 -33
100 -61 195 -61 212 0 10 -14 57 -31 104 -17 46 -37 113 -45 149 -17 80 -41
179 -59 245 -7 28 -17 73 -21 100 -3 28 -13 65 -20 83 -7 18 -20 71 -28 118
-8 46 -18 89 -21 94 -7 11 -39 224 -60 393 -8 65 -17 122 -20 127 -12 20 -62
362 -86 585 -5 55 -17 161 -25 235 -8 74 -21 250 -29 390 -8 140 -19 307 -25
370 -5 63 -12 163 -15 223 -6 101 -5 110 17 145 37 58 42 67 62 103 17 32 49
82 182 283 33 49 64 97 69 105 52 81 93 141 115 166 14 17 33 40 41 51 77 114
202 281 310 413 16 20 52 65 80 101 125 158 480 540 731 785 396 388 778 723
1122 987 264 203 331 252 517 386 116 82 333 230 395 268 18 10 63 40 101 67
39 26 72 47 75 47 6 0 149 86 192 115 16 11 66 40 111 65 45 25 127 70 181
101 198 114 211 120 384 202 41 20 91 45 110 56 19 11 76 39 125 61 50 23 117
54 150 69 112 52 327 139 385 156 14 4 52 20 85 35 33 16 128 50 210 75 83 26
173 55 200 66 28 10 75 26 105 35 51 14 188 51 200 53 3 1 60 -17 125 -39z"/>
<path d="M6620 13238 c-52 -16 -124 -37 -160 -47 -36 -10 -99 -33 -142 -50
-42 -17 -81 -31 -87 -31 -6 0 -25 -6 -43 -14 -18 -7 -58 -23 -88 -34 -158 -56
-209 -75 -245 -92 -22 -10 -65 -28 -95 -41 -101 -41 -144 -60 -245 -109 -55
-27 -136 -65 -180 -84 -44 -20 -87 -41 -95 -46 -8 -5 -62 -32 -120 -61 -58
-29 -116 -60 -130 -69 -14 -10 -70 -41 -125 -70 -55 -29 -118 -65 -140 -79
-22 -14 -65 -39 -95 -56 -160 -88 -359 -215 -720 -460 -75 -50 -321 -230 -375
-273 -33 -26 -76 -59 -95 -72 -114 -79 -535 -423 -714 -584 -462 -416 -698
-653 -1106 -1111 -115 -128 -213 -249 -338 -415 -39 -52 -86 -115 -105 -140
-19 -25 -56 -76 -82 -115 -27 -38 -63 -88 -82 -111 -18 -23 -33 -44 -33 -48 0
-4 -18 -31 -40 -61 -22 -30 -40 -56 -40 -59 0 -3 -24 -41 -52 -85 -132 -201
-182 -282 -199 -321 -13 -29 5 -709 21 -807 6 -32 14 -128 20 -213 10 -159 30
-323 55 -465 8 -44 17 -116 21 -160 3 -44 12 -105 19 -135 8 -30 17 -86 20
-125 4 -38 16 -114 26 -168 10 -54 19 -120 19 -146 0 -26 7 -70 15 -97 9 -27
24 -94 34 -149 11 -55 29 -143 41 -195 12 -52 30 -131 39 -175 10 -44 29 -118
44 -165 14 -47 38 -132 53 -190 15 -58 40 -150 56 -205 16 -55 36 -127 44
-159 8 -33 19 -65 24 -70 4 -6 15 -38 23 -71 15 -60 23 -84 58 -180 10 -27 23
-70 29 -95 7 -25 16 -49 20 -55 4 -5 22 -50 39 -100 88 -258 114 -331 121
-340 4 -5 11 -21 15 -35 19 -63 132 -348 185 -465 10 -22 21 -51 25 -65 4 -14
31 -74 60 -135 29 -60 55 -121 60 -133 6 -20 86 -197 146 -326 30 -62 198
-395 234 -461 21 -38 55 -101 75 -140 56 -106 210 -368 276 -473 113 -177 129
-202 199 -304 107 -156 170 -227 229 -254 28 -13 59 -24 68 -24 10 0 46 -9 80
-19 149 -46 236 -70 378 -105 30 -8 89 -25 130 -39 41 -14 93 -29 115 -32 22
-4 69 -15 105 -25 36 -10 121 -30 190 -45 69 -15 154 -36 189 -46 35 -11 74
-19 87 -19 13 0 61 -9 106 -19 73 -18 205 -42 378 -70 30 -5 101 -18 158 -30
56 -12 155 -28 220 -36 64 -8 151 -19 192 -25 548 -74 1468 -114 1834 -81 70
7 208 16 305 21 164 8 261 18 551 57 255 33 319 43 410 63 52 12 122 26 155
31 33 5 92 17 130 25 106 22 204 42 270 54 33 7 85 18 115 27 30 8 96 23 145
34 50 10 128 28 175 39 47 11 116 27 155 36 38 8 101 25 140 36 38 11 97 27
130 35 33 7 83 20 110 28 28 8 76 19 108 25 31 5 65 14 75 19 9 5 40 12 67 16
28 4 66 13 85 20 19 7 64 19 100 25 88 16 152 51 187 100 15 23 42 59 58 82
17 22 57 82 90 133 33 51 86 131 118 178 31 46 57 88 57 92 0 4 15 28 34 54
18 25 55 84 81 131 26 47 53 92 60 100 13 16 74 127 108 195 10 22 25 47 32
55 21 23 265 501 292 570 9 25 29 66 44 91 15 25 30 57 34 70 4 13 16 40 26
59 11 19 19 38 19 42 0 7 25 62 111 244 10 23 19 46 19 52 0 11 14 44 75 177
18 39 36 81 40 95 4 14 18 54 32 90 62 157 156 416 174 480 6 19 26 74 45 122
19 49 34 95 34 104 0 8 8 36 18 62 23 58 53 156 88 287 15 55 34 120 44 145
10 25 21 65 25 90 4 25 11 53 16 62 5 9 16 45 24 80 27 118 47 193 71 273 23
77 56 217 75 320 14 73 48 231 66 305 8 36 24 113 33 172 10 59 20 111 23 115
3 4 10 50 16 101 6 51 18 119 26 150 8 31 15 75 15 98 0 23 7 81 16 130 34
192 31 171 78 628 14 127 22 289 42 754 l6 152 -56 99 c-30 54 -62 104 -71
111 -8 7 -15 16 -15 20 0 9 -53 94 -154 246 -74 113 -70 108 -140 199 -62 81
-68 89 -151 202 -27 37 -81 106 -121 153 -40 47 -106 126 -147 175 -111 134
-195 225 -528 575 -263 276 -660 668 -808 797 -20 17 -83 73 -141 123 -122
108 -402 332 -511 410 -42 30 -146 105 -230 165 -85 61 -172 122 -194 135 -22
13 -60 40 -85 58 -24 19 -53 38 -65 43 -11 5 -54 31 -95 59 -41 27 -109 71
-150 96 -41 26 -100 63 -130 83 -65 42 -160 97 -252 145 -36 20 -69 40 -72 45
-4 5 -40 26 -81 46 -41 19 -76 39 -79 44 -3 5 -17 12 -31 15 -13 3 -44 19 -67
35 -104 69 -720 368 -848 411 -14 4 -43 18 -65 29 -21 12 -44 21 -51 21 -11 0
-72 24 -139 54 -32 15 -100 38 -175 61 -25 8 -79 27 -120 43 -41 17 -106 39
-145 50 -38 12 -100 30 -136 42 -84 26 -113 24 -229 -12z m230 -58 c36 -10
112 -35 170 -55 58 -21 132 -46 165 -55 33 -10 92 -30 130 -45 39 -14 86 -31
105 -37 19 -5 42 -16 50 -23 8 -7 26 -16 40 -19 14 -4 45 -15 70 -26 151 -61
180 -74 230 -100 30 -15 84 -40 120 -55 98 -41 430 -205 475 -234 22 -15 88
-50 147 -79 59 -29 110 -57 113 -63 4 -5 21 -16 38 -24 18 -8 68 -35 112 -60
44 -25 89 -49 100 -54 11 -5 42 -25 70 -45 27 -20 53 -36 56 -36 10 0 165 -95
217 -134 27 -20 52 -36 55 -36 6 0 47 -26 127 -80 25 -17 88 -59 140 -93 52
-35 124 -83 159 -107 59 -40 97 -68 301 -217 173 -127 262 -198 398 -318 31
-28 85 -72 120 -99 34 -27 62 -52 62 -57 0 -4 35 -36 79 -72 135 -112 920
-904 1102 -1112 24 -27 71 -80 104 -117 127 -142 164 -185 200 -233 21 -27 54
-69 74 -92 20 -22 56 -69 81 -103 25 -33 70 -93 100 -133 31 -40 72 -98 93
-129 21 -31 41 -59 45 -62 14 -8 233 -349 251 -391 5 -11 25 -42 45 -70 l36
-50 -1 -155 c-3 -416 -57 -1003 -139 -1516 -11 -67 -20 -135 -20 -153 0 -17
-11 -74 -25 -127 -14 -53 -25 -112 -25 -130 0 -19 -8 -69 -19 -112 -10 -42
-24 -105 -30 -139 -6 -35 -16 -91 -22 -125 -6 -35 -19 -92 -29 -128 -10 -36
-25 -94 -34 -130 -89 -368 -120 -488 -127 -502 -5 -9 -16 -45 -24 -80 -29
-126 -47 -194 -61 -228 -7 -19 -16 -53 -20 -75 -4 -22 -12 -51 -19 -65 -7 -14
-15 -42 -19 -62 -4 -21 -18 -62 -31 -93 -14 -31 -34 -86 -44 -123 -10 -37 -24
-83 -31 -102 -7 -19 -20 -57 -29 -85 -33 -95 -53 -150 -93 -260 -22 -60 -47
-128 -54 -150 -8 -22 -27 -69 -43 -105 -16 -36 -53 -126 -81 -200 -29 -74 -58
-146 -66 -160 -7 -14 -25 -54 -40 -90 -38 -94 -62 -146 -99 -220 -18 -36 -54
-114 -80 -175 -41 -93 -92 -197 -197 -395 -10 -19 -18 -39 -18 -44 0 -5 -6
-17 -14 -25 -8 -9 -33 -52 -56 -95 -62 -119 -101 -188 -121 -218 -11 -14 -19
-28 -19 -31 0 -9 -94 -168 -174 -292 -42 -66 -89 -140 -104 -163 -26 -42 -48
-76 -196 -294 -59 -88 -69 -98 -103 -104 -21 -4 -49 -12 -63 -19 -14 -7 -45
-16 -70 -19 -25 -4 -70 -15 -100 -26 -30 -10 -109 -30 -175 -45 -66 -15 -140
-33 -165 -40 -25 -7 -99 -25 -165 -40 -66 -15 -174 -42 -240 -60 -66 -19 -140
-37 -165 -40 -25 -4 -67 -13 -95 -20 -75 -21 -224 -53 -275 -60 -25 -4 -71
-15 -103 -26 -31 -10 -68 -19 -82 -19 -13 0 -66 -9 -117 -19 -169 -34 -392
-72 -606 -102 -40 -5 -83 -14 -96 -19 -14 -5 -71 -12 -128 -15 -57 -4 -155
-13 -218 -21 -358 -43 -1389 -43 -1770 0 -69 8 -174 18 -235 21 -60 3 -123 10
-140 15 -16 6 -64 14 -105 19 -125 15 -359 49 -460 65 -183 30 -335 57 -380
67 -25 6 -76 17 -115 25 -132 27 -260 55 -305 66 -25 6 -72 16 -105 23 -33 7
-94 23 -135 35 -41 12 -109 30 -150 40 -112 26 -199 48 -255 65 -88 25 -168
47 -229 62 -33 7 -65 18 -72 24 -7 6 -39 17 -71 24 -101 23 -153 46 -178 79
-13 17 -40 51 -59 76 -47 61 -223 325 -323 485 -80 128 -127 210 -237 415 -31
58 -65 121 -76 140 -54 94 -319 642 -378 780 -22 52 -52 123 -66 156 -14 34
-26 65 -26 69 0 5 -6 16 -13 24 -8 9 -28 54 -46 101 -17 47 -36 94 -41 105 -5
11 -23 56 -40 100 -17 43 -35 84 -39 90 -5 5 -11 24 -15 40 -6 27 -57 163
-106 285 -31 78 -57 152 -89 255 -17 55 -44 134 -60 175 -16 41 -38 107 -49
145 -12 39 -28 93 -37 120 -9 28 -20 66 -24 86 -4 20 -17 60 -28 90 -12 30
-31 91 -42 137 -20 80 -39 152 -80 317 -11 44 -27 112 -35 150 -8 39 -24 95
-34 126 -11 30 -23 80 -26 110 -4 30 -14 74 -21 99 -8 25 -19 79 -25 120 -6
41 -15 89 -20 105 -5 17 -14 82 -19 146 -6 64 -17 134 -25 155 -7 22 -19 92
-25 157 -7 64 -16 131 -21 148 -5 16 -14 85 -20 152 -6 67 -15 145 -20 172 -5
28 -17 136 -25 240 -8 105 -17 201 -20 215 -11 55 -45 593 -45 708 l0 124 39
56 c21 32 56 86 76 122 21 36 49 78 62 93 13 16 23 32 23 36 0 10 75 126 134
206 24 33 55 78 69 100 30 48 200 278 263 356 25 31 54 69 64 85 10 16 39 54
64 84 124 146 197 230 261 299 39 42 86 94 104 116 179 216 868 874 1136 1086
39 31 77 64 85 74 8 10 28 26 44 36 16 9 61 45 100 78 135 115 450 352 687
516 55 39 119 84 141 100 23 17 48 35 57 40 8 6 53 35 99 65 47 30 105 68 131
84 25 16 82 51 126 79 44 27 109 66 145 85 36 19 89 50 118 69 29 18 55 33 59
33 3 0 29 15 57 33 28 19 83 49 121 67 39 19 82 42 97 52 43 29 474 240 518
253 13 4 54 22 90 40 75 37 153 70 260 111 41 15 84 34 95 40 11 7 117 44 235
83 118 39 242 81 275 93 104 36 219 67 235 61 8 -2 44 -13 80 -23z"/>
<path d="M6335 12121 c-3 -6 7 -21 22 -35 l28 -26 0 -400 0 -400 -30 -24 c-51
-41 -28 -48 159 -48 91 1 171 1 176 1 16 1 12 41 -5 48 -35 13 -45 57 -45 206
0 120 3 147 16 158 11 9 21 10 31 3 21 -13 114 -176 141 -247 27 -73 28 -103
2 -119 -25 -16 -26 -48 -2 -48 141 -4 347 1 356 10 7 7 2 19 -16 37 -34 37
-43 56 -63 133 -20 75 -52 145 -138 294 l-40 68 44 38 c24 20 62 64 84 96 33
47 40 66 40 104 0 58 -36 109 -98 139 -41 20 -59 21 -350 21 -180 0 -308 -4
-312 -9z m441 -106 c35 -14 69 -69 60 -97 -3 -7 -7 -26 -11 -43 -10 -43 -121
-147 -155 -143 -25 3 -25 3 -28 116 -3 125 4 147 51 167 40 18 41 18 83 0z"/>
<path d="M5485 11979 c-22 -10 -50 -19 -63 -19 -13 0 -51 -11 -85 -25 -34 -13
-96 -33 -137 -44 -259 -69 -245 -64 -248 -92 -3 -22 2 -29 27 -37 34 -12 54
-51 76 -147 25 -116 47 -200 62 -245 8 -25 23 -79 33 -120 9 -41 25 -102 34
-135 21 -79 20 -131 -4 -165 -11 -15 -17 -30 -13 -34 12 -11 58 -6 119 13 32
10 106 31 164 46 58 15 130 38 162 50 31 13 84 29 117 36 90 17 91 21 91 221
0 105 -4 169 -10 173 -21 13 -37 -17 -44 -81 -12 -113 -62 -184 -172 -243 -99
-54 -174 2 -208 154 -8 33 -22 95 -32 138 -22 98 -16 107 83 114 l68 5 49 -46
c88 -82 98 -58 32 78 -24 50 -52 115 -61 144 -21 63 -48 69 -53 12 -4 -42 -21
-62 -80 -95 -67 -37 -78 -34 -96 29 -21 73 -20 89 9 124 74 88 225 78 312 -21
33 -38 47 -44 58 -27 5 9 -10 48 -66 166 -10 23 -19 48 -19 56 0 40 -42 47
-105 17z"/>
<path d="M7985 11982 c-80 -30 -92 -39 -150 -109 -82 -99 -96 -177 -50 -270
26 -51 115 -138 203 -197 55 -38 110 -98 118 -132 14 -57 -50 -134 -119 -141
-64 -8 -108 11 -169 70 -44 43 -57 64 -75 124 -13 39 -23 94 -23 122 0 44 -3
51 -20 51 -30 0 -42 -34 -51 -147 -4 -58 -13 -129 -20 -158 -6 -29 -9 -60 -6
-68 3 -8 26 -17 54 -21 26 -4 62 -13 78 -21 169 -80 188 -85 300 -85 104 0
110 1 169 34 106 60 147 122 167 257 10 67 9 78 -9 119 -31 68 -84 123 -177
185 -107 72 -155 124 -155 169 0 71 65 109 148 87 55 -15 116 -85 139 -160 20
-69 36 -89 56 -73 10 9 16 49 21 139 7 136 5 143 -44 143 -14 0 -42 12 -63 26
-90 61 -239 87 -322 56z"/>
<path d="M4352 11588 c-7 -7 -43 -29 -80 -49 -81 -43 -91 -68 -37 -93 41 -20
50 -38 60 -122 4 -32 12 -70 17 -84 5 -14 16 -68 24 -121 8 -53 23 -127 33
-165 11 -38 18 -70 16 -73 -10 -10 -53 11 -63 31 -15 30 -102 130 -226 262
-105 113 -100 101 -79 184 4 16 1 22 -10 22 -16 0 -109 -51 -137 -75 -8 -7
-46 -29 -85 -48 -77 -39 -118 -72 -112 -90 2 -7 26 -15 53 -19 47 -6 54 -12
174 -136 254 -262 395 -413 404 -433 7 -14 6 -27 -3 -41 -11 -17 -10 -23 2
-36 14 -13 23 -10 84 26 37 23 98 57 136 77 37 19 67 41 67 48 0 6 -15 24 -33
38 -27 22 -35 39 -49 100 -9 41 -19 103 -23 139 -3 36 -11 83 -17 105 -5 22
-16 76 -23 120 -7 44 -23 136 -35 205 -19 107 -21 132 -10 172 6 26 9 52 5 58
-9 14 -38 13 -53 -2z"/>
<path d="M9100 11590 c-11 -7 -10 -15 4 -45 11 -21 15 -47 12 -61 -8 -31 -94
-221 -115 -254 -6 -8 -31 -64 -56 -125 -26 -60 -62 -138 -81 -173 -19 -34 -34
-69 -34 -76 0 -18 -66 -76 -85 -76 -20 0 -19 -24 3 -42 23 -20 280 -148 297
-148 22 0 25 15 9 44 -23 45 -21 53 43 196 13 30 30 69 37 85 8 17 32 68 54
115 22 47 50 106 61 133 12 26 30 67 41 91 11 25 20 49 20 55 0 21 63 81 85
81 12 0 28 6 34 14 18 22 -11 43 -156 116 -160 81 -157 80 -173 70z"/>
<path d="M9885 10978 c-98 -97 -125 -138 -91 -138 7 0 31 12 52 27 68 47 170
41 213 -11 15 -18 20 -8 -66 -128 -58 -81 -118 -163 -198 -268 -33 -44 -73
-98 -90 -121 -16 -22 -43 -50 -58 -61 -27 -19 -39 -20 -94 -3 -19 6 -23 3 -23
-13 0 -20 29 -46 239 -219 98 -81 142 -84 91 -8 -11 17 -20 39 -20 50 0 18 51
98 108 171 26 32 65 86 194 261 49 66 100 130 114 144 l26 24 24 -30 c32 -40
46 -115 38 -198 -6 -63 -5 -69 11 -66 18 4 145 228 145 256 0 8 -14 22 -31 31
-29 16 -177 132 -314 247 -33 27 -84 74 -113 103 l-52 54 -105 -104z"/>
<path d="M3160 10764 c-140 -128 -155 -157 -86 -158 43 -1 52 -10 241 -240 44
-54 102 -123 129 -154 26 -32 58 -73 71 -92 12 -19 30 -42 39 -49 29 -24 43
-64 38 -103 -7 -63 23 -47 157 81 131 126 148 156 84 156 -45 0 -59 15 -291
305 -42 52 -98 120 -125 150 -77 84 -101 127 -99 168 3 31 -10 53 -28 51 -3 0
-61 -52 -130 -115z"/>
<path d="M6495 10554 c-60 -7 -159 -18 -220 -24 -175 -18 -496 -83 -613 -125
-37 -13 -85 -28 -107 -34 -67 -17 -256 -85 -320 -115 -33 -15 -69 -32 -80 -36
-47 -20 -175 -83 -240 -119 -38 -22 -85 -47 -104 -55 -19 -9 -60 -34 -92 -56
-32 -22 -61 -40 -64 -40 -3 0 -18 -9 -33 -19 -15 -10 -60 -40 -100 -65 -40
-26 -87 -59 -105 -74 -17 -16 -45 -36 -62 -47 -16 -10 -55 -42 -85 -70 -30
-28 -77 -69 -105 -90 -183 -146 -513 -514 -652 -730 -29 -44 -65 -98 -81 -120
-74 -103 -172 -286 -276 -515 -32 -69 -62 -133 -68 -144 -5 -10 -16 -39 -23
-65 -7 -25 -24 -75 -38 -111 -14 -36 -30 -78 -36 -95 -13 -37 -37 -129 -54
-210 -7 -33 -17 -66 -21 -73 -4 -7 -14 -50 -21 -95 -7 -45 -23 -125 -34 -177
-72 -328 -69 -1042 6 -1345 8 -33 21 -94 28 -135 15 -84 38 -184 66 -279 11
-35 19 -73 19 -85 0 -11 8 -34 18 -51 10 -16 22 -43 26 -60 7 -31 33 -103 69
-190 45 -111 186 -403 222 -460 14 -22 31 -51 37 -65 26 -53 246 -381 268
-400 4 -3 30 -36 60 -75 114 -149 393 -438 505 -523 33 -25 80 -64 105 -87 62
-58 355 -265 375 -265 2 0 33 -19 67 -43 35 -23 106 -64 158 -91 52 -27 115
-59 140 -73 25 -14 90 -43 145 -65 55 -22 116 -49 135 -59 40 -22 292 -105
348 -115 20 -4 50 -13 65 -21 16 -8 61 -20 100 -28 40 -8 85 -18 100 -24 15
-6 57 -13 94 -17 38 -3 91 -12 118 -20 28 -7 113 -18 190 -24 77 -5 209 -15
293 -22 118 -9 189 -9 305 1 84 6 215 16 292 22 77 6 160 16 185 24 25 7 75
16 112 19 37 4 84 13 105 20 21 7 63 17 93 21 30 4 72 15 95 25 22 9 56 20 76
24 64 12 321 103 451 159 120 53 139 62 191 89 12 6 56 29 97 51 105 55 147
79 206 118 28 19 82 53 120 77 171 106 436 323 614 502 319 322 565 659 730
1000 51 105 58 121 97 195 11 22 35 78 52 125 18 47 36 94 41 105 5 11 13 36
19 55 5 19 18 58 30 85 11 28 29 88 41 135 12 47 28 105 36 130 7 25 18 74 23
110 5 36 16 92 25 125 9 32 16 77 16 98 0 22 7 65 14 96 28 107 40 275 40 551
0 276 -12 444 -40 551 -7 31 -14 77 -14 101 0 24 -9 78 -19 119 -10 41 -22 94
-25 119 -4 25 -13 68 -21 95 -24 87 -46 169 -56 210 -5 22 -18 60 -28 85 -10
25 -28 70 -39 100 -64 173 -87 231 -113 280 -15 30 -49 98 -75 150 -25 52 -59
115 -74 140 -15 25 -44 74 -64 110 -42 75 -195 296 -278 403 -170 219 -452
500 -657 655 -31 23 -76 59 -99 79 -49 41 -132 97 -241 163 -40 25 -85 53
-100 62 -14 10 -42 26 -61 36 -19 10 -82 44 -140 74 -58 31 -143 73 -190 93
-47 20 -96 42 -110 50 -41 22 -312 115 -336 115 -6 0 -32 9 -57 20 -87 39
-440 111 -632 130 -55 5 -158 16 -230 25 -156 18 -379 18 -530 -1z m390 -894
c33 -6 100 -15 150 -20 49 -6 110 -17 135 -25 25 -7 83 -25 130 -40 47 -14
117 -41 155 -59 39 -19 110 -54 160 -78 49 -24 105 -53 123 -65 18 -12 81 -45
140 -74 59 -29 118 -60 132 -69 14 -9 41 -22 60 -30 19 -7 49 -19 65 -25 17
-7 53 -22 82 -34 28 -11 59 -21 67 -21 9 0 42 -9 73 -19 32 -11 96 -25 143
-32 47 -6 96 -17 110 -23 16 -7 171 -13 435 -16 402 -5 410 -5 410 -25 0 -14
-14 -27 -45 -42 -25 -11 -82 -40 -127 -62 -46 -23 -89 -41 -95 -41 -7 -1 -31
-9 -53 -20 -22 -11 -46 -19 -52 -20 -7 0 -39 -9 -70 -19 -32 -11 -78 -23 -103
-26 -25 -4 -57 -14 -72 -21 -84 -43 -513 -39 -627 6 -28 11 -61 20 -73 20 -12
0 -51 10 -87 21 -169 55 -249 83 -286 100 -45 20 -114 45 -255 90 -52 17 -108
37 -125 46 -16 8 -59 21 -95 29 -36 7 -96 21 -135 29 -53 13 -112 16 -245 13
-196 -3 -221 -11 -290 -83 -33 -34 -35 -40 -38 -119 -4 -76 -2 -87 27 -142 16
-32 38 -69 48 -80 32 -38 111 -92 145 -99 18 -4 51 -13 73 -20 62 -20 256 -46
409 -54 191 -11 433 2 879 45 291 28 504 16 632 -38 28 -11 84 -38 125 -58 90
-46 135 -63 260 -98 91 -25 105 -26 367 -27 188 -1 276 -4 284 -12 15 -15 -30
-58 -69 -68 -14 -3 -45 -15 -69 -26 -23 -10 -50 -19 -60 -19 -10 0 -36 -9 -58
-19 -23 -10 -68 -22 -100 -26 -33 -4 -76 -14 -95 -22 -56 -23 -240 -36 -442
-30 -162 4 -193 8 -230 25 -24 12 -64 26 -90 31 -26 6 -62 17 -80 25 -159 69
-320 59 -362 -23 -19 -35 -19 -44 -6 -93 18 -65 53 -95 143 -124 82 -26 83
-26 452 -28 391 -3 443 -8 540 -55 74 -36 162 -71 178 -71 9 0 18 -4 22 -9 3
-5 22 -15 43 -22 38 -12 103 -39 157 -65 36 -17 202 -80 264 -100 24 -8 49
-18 55 -23 6 -5 25 -12 43 -15 17 -4 37 -14 44 -23 11 -13 10 -18 -6 -30 -21
-15 -28 -15 -120 12 -85 24 -352 31 -603 15 -178 -12 -221 -11 -355 3 -83 9
-172 23 -196 31 -24 9 -74 16 -110 16 -58 0 -72 -4 -98 -26 -86 -71 -26 -176
123 -217 72 -20 104 -22 364 -22 157 0 359 4 450 9 252 13 401 -15 556 -102
174 -99 229 -138 232 -165 3 -21 -2 -28 -22 -33 -14 -3 -29 -3 -34 0 -18 11
-466 -14 -517 -29 -27 -9 -80 -19 -116 -24 -37 -5 -80 -16 -96 -25 -17 -8 -58
-20 -91 -25 -34 -5 -69 -14 -79 -19 -10 -6 -40 -13 -68 -17 -27 -4 -88 -13
-134 -21 -46 -8 -114 -14 -150 -14 -77 0 -336 35 -378 51 -15 6 -53 15 -83 21
-30 5 -71 18 -92 29 -20 10 -47 19 -58 19 -11 0 -38 9 -60 20 -22 11 -44 20
-50 20 -16 0 -90 33 -214 96 -59 30 -110 53 -112 51 -4 -4 18 -103 38 -169 6
-20 8 -49 5 -65 -26 -127 -39 -166 -76 -230 -24 -40 -39 -78 -36 -84 10 -15
425 -2 525 16 64 12 277 35 333 35 9 0 26 -9 38 -21 18 -18 20 -28 14 -85 -9
-79 -61 -211 -101 -254 -8 -8 -36 -42 -62 -75 -26 -33 -72 -83 -102 -110 -30
-28 -59 -55 -65 -62 -5 -7 -39 -35 -75 -62 -36 -28 -72 -57 -80 -64 -16 -14
-119 -85 -150 -102 -10 -6 -26 -17 -35 -25 -21 -17 -51 -35 -85 -50 -14 -6
-33 -18 -42 -27 -17 -15 -104 -64 -183 -103 -22 -11 -53 -29 -70 -40 -27 -18
-54 -31 -105 -53 -8 -4 -22 -11 -30 -15 -14 -9 -77 -38 -130 -61 -14 -6 -32
-15 -40 -20 -25 -16 -80 -41 -174 -77 -118 -47 -146 -68 -146 -112 0 -18 4
-41 9 -51 11 -20 -20 -149 -39 -161 -7 -4 -13 -42 -16 -93 -2 -54 -11 -105
-24 -137 -58 -147 -58 -750 -1 -881 21 -46 26 -112 21 -277 -1 -65 2 -89 16
-110 22 -33 47 -125 47 -172 1 -50 -21 -141 -37 -159 -7 -9 -17 -26 -20 -38
-4 -12 -31 -42 -59 -65 -103 -85 -104 -86 -245 -120 -63 -15 -223 18 -255 53
-10 10 -23 19 -29 19 -5 0 -32 18 -58 40 -54 45 -100 130 -120 222 -11 49 -11
62 4 97 9 23 16 52 16 65 0 13 9 35 21 50 19 24 21 41 23 199 1 137 5 178 18
202 20 36 38 190 45 378 6 169 -19 438 -48 501 -13 29 -19 64 -19 119 0 63 -4
84 -20 104 -11 14 -20 34 -20 45 0 10 -7 34 -15 53 -12 31 -12 40 1 77 8 23
12 49 9 59 -7 22 -69 63 -117 79 -21 6 -40 16 -43 21 -4 5 -13 9 -22 9 -16 0
-113 41 -143 60 -8 6 -26 15 -40 21 -14 6 -42 19 -62 30 -20 10 -43 19 -51 19
-8 0 -20 6 -26 14 -7 8 -23 17 -36 20 -14 4 -41 17 -61 31 -20 13 -59 36 -88
50 -104 53 -174 92 -201 113 -15 12 -31 22 -35 22 -8 0 -160 101 -265 176 -73
52 -135 103 -180 149 -22 22 -51 49 -65 60 -50 40 -157 182 -195 260 -55 113
-63 245 -16 260 25 8 253 -12 351 -30 41 -7 141 -16 223 -19 141 -5 147 -5
147 14 0 11 -6 20 -12 20 -7 0 -26 7 -43 16 -16 8 -66 29 -110 46 -44 16 -91
36 -105 43 -14 7 -41 16 -60 20 -19 4 -63 18 -98 31 -35 14 -100 33 -145 43
-45 11 -102 24 -127 30 -115 28 -191 43 -258 52 -79 10 -132 28 -260 92 -136
68 -262 202 -340 362 -29 59 -52 175 -52 261 0 101 33 234 70 281 11 14 20 30
20 35 0 15 90 196 119 242 104 159 68 476 -66 574 -23 17 -26 24 -17 39 7 10
20 17 30 15 20 -3 129 -47 154 -62 8 -5 41 -22 72 -39 114 -58 209 -146 259
-241 23 -43 24 -54 24 -230 0 -137 -4 -191 -14 -209 -8 -14 -19 -50 -26 -80
-7 -31 -21 -78 -30 -106 -73 -220 -87 -306 -66 -405 13 -59 67 -180 81 -180 5
0 11 -8 14 -17 3 -10 25 -30 49 -45 37 -23 55 -28 110 -28 56 0 70 4 97 26 17
15 37 38 44 53 22 42 48 231 43 302 -25 330 -28 411 -19 475 25 169 94 274
222 339 44 22 61 25 165 25 75 0 127 5 148 14 66 27 118 101 227 321 57 116
118 230 135 254 16 24 39 58 50 77 11 19 47 68 79 109 249 318 405 422 706
468 114 17 292 21 375 7z"/>
<path d="M7015 8264 c-33 -8 -70 -17 -83 -20 -64 -13 -83 -94 -34 -150 58 -65
193 -118 392 -154 107 -19 242 -51 285 -67 22 -8 67 -21 100 -28 105 -24 188
-45 256 -65 73 -22 105 -25 114 -10 8 13 -49 47 -112 66 -29 8 -55 19 -58 24
-3 5 -27 12 -53 15 -26 4 -73 15 -105 26 -31 10 -64 19 -73 19 -8 0 -58 14
-110 31 -167 56 -226 135 -153 205 l31 29 178 -2 c98 -2 189 1 202 6 22 9 21
10 -22 29 -31 14 -78 22 -155 27 -60 4 -161 13 -223 21 -143 18 -299 17 -377
-2z"/>
<path d="M5775 8185 c-22 -14 -47 -25 -56 -25 -9 0 -22 -7 -29 -15 -7 -8 -38
-29 -69 -47 -31 -18 -95 -70 -143 -116 -67 -65 -94 -100 -125 -160 -37 -75
-38 -79 -37 -182 1 -88 4 -112 22 -145 12 -22 22 -43 22 -48 0 -12 40 -66 93
-126 58 -65 134 -180 149 -224 6 -18 17 -39 24 -47 7 -8 15 -27 19 -42 4 -15
13 -32 21 -39 8 -6 14 -17 14 -23 0 -7 15 -26 33 -44 75 -73 159 -21 253 155
36 66 49 153 34 221 -12 54 -19 63 -139 182 -81 79 -139 146 -159 182 -29 52
-32 66 -32 140 0 64 5 92 20 121 11 20 20 43 20 50 0 24 66 137 117 200 46 58
18 75 -52 32z"/>
<path d="M4331 7914 c0 -11 3 -14 6 -6 3 7 2 16 -1 19 -3 4 -6 -2 -5 -13z"/>
<path d="M5271 7884 c0 -11 3 -14 6 -6 3 7 2 16 -1 19 -3 4 -6 -2 -5 -13z"/>
<path d="M5788 7894 c-4 -6 -8 -60 -10 -120 -3 -122 1 -132 82 -207 54 -49
153 -150 172 -174 38 -49 60 -106 60 -157 1 -60 -33 -177 -62 -213 -11 -14
-20 -30 -20 -35 0 -14 -49 -78 -94 -121 -54 -53 -111 -80 -152 -73 -60 12
-163 115 -180 181 -3 13 -12 29 -20 36 -8 6 -14 17 -14 24 0 7 -8 23 -19 36
-10 13 -22 35 -26 47 -9 30 -55 98 -91 137 -68 71 -106 124 -134 185 -17 36
-37 78 -46 95 -9 17 -18 66 -21 120 -2 49 -7 97 -10 105 -7 23 -33 -17 -33
-53 0 -16 -4 -26 -10 -22 -6 3 -7 -1 -4 -9 3 -9 2 -16 -4 -16 -6 0 -12 5 -14
11 -3 8 -36 11 -98 10 -52 -1 -100 2 -107 6 -6 5 -16 44 -22 87 -21 153 -28
118 -34 -169 -6 -270 -19 -326 -96 -414 -36 -42 -53 -52 -105 -66 -57 -16 -66
-16 -125 0 -35 9 -79 28 -98 42 -46 36 -130 143 -139 179 -4 16 -14 40 -23 54
-12 19 -17 59 -20 182 -2 125 -6 158 -17 158 -7 0 -19 -18 -25 -40 -7 -23 -15
-36 -19 -30 -4 7 -45 10 -108 9 -125 -2 -132 3 -132 82 0 32 -4 61 -10 64 -9
6 -13 -6 -25 -80 -4 -22 -11 -45 -17 -52 -17 -21 12 -235 39 -288 5 -11 17
-33 26 -50 9 -16 23 -45 33 -63 19 -36 170 -182 190 -182 6 0 14 -7 18 -15 3
-8 13 -15 23 -15 10 0 32 -8 48 -18 36 -22 129 -47 245 -66 47 -8 103 -21 125
-30 22 -8 58 -15 80 -16 22 0 58 -9 80 -20 22 -11 57 -19 78 -20 21 0 55 -9
77 -20 22 -11 49 -20 60 -20 18 0 85 -25 175 -65 17 -7 44 -16 62 -20 17 -3
37 -13 44 -21 6 -8 18 -14 26 -14 20 0 81 -33 178 -96 79 -52 175 -142 208
-196 10 -16 22 -28 27 -28 11 0 97 56 127 83 12 11 33 26 45 33 47 27 145 74
155 74 5 0 24 11 43 25 19 14 44 25 57 25 13 0 37 7 53 15 29 15 88 26 253 46
89 11 98 11 327 -21 67 -10 157 -42 200 -73 13 -9 30 -17 36 -17 7 0 31 -9 55
-20 24 -11 55 -20 69 -20 14 0 39 -7 55 -16 43 -24 155 -45 268 -51 231 -12
353 73 432 300 31 92 34 192 6 251 -10 23 -21 53 -25 67 -3 14 -25 45 -50 69
-71 70 -240 115 -310 82 -105 -49 -136 -67 -136 -79 0 -9 13 -13 40 -13 70 0
167 -38 199 -79 35 -45 71 -114 71 -138 0 -33 -47 -117 -86 -156 -46 -45 -64
-51 -152 -45 -55 4 -77 11 -120 39 -52 33 -217 161 -237 184 -5 6 -44 33 -85
61 -41 27 -81 54 -88 61 -7 7 -25 16 -40 19 -15 4 -32 11 -38 16 -19 14 -151
56 -201 64 -27 3 -61 13 -76 21 -15 7 -58 17 -95 20 -37 4 -80 15 -97 25 -16
10 -37 18 -45 18 -33 0 -107 68 -143 132 -23 40 -27 58 -27 126 0 59 4 83 15
92 8 7 15 18 15 24 0 6 18 27 40 46 22 19 40 39 40 44 0 14 -49 -3 -70 -24
-11 -11 -24 -20 -30 -20 -5 0 -10 -6 -10 -14 0 -19 -42 -24 -182 -24 -64 0
-120 -2 -125 -5 -5 -3 -15 -2 -23 3 -7 4 -19 6 -26 3 -21 -8 -36 41 -43 137
-3 47 -9 80 -13 74z m-668 -224 c0 -5 -10 -10 -22 -9 -22 0 -22 1 -3 9 11 5
21 9 23 9 1 1 2 -3 2 -9z m-1002 -7 c-16 -2 -40 -2 -55 0 -16 2 -3 4 27 4 30
0 43 -2 28 -4z m890 0 c-10 -2 -26 -2 -35 0 -10 3 -2 5 17 5 19 0 27 -2 18 -5z
m1065 0 c-23 -2 -64 -2 -90 0 -26 2 -7 3 42 3 50 0 71 -1 48 -3z"/>
<path d="M7040 7890 c0 -5 12 -10 26 -10 14 0 23 4 19 10 -3 6 -15 10 -26 10
-10 0 -19 -4 -19 -10z"/>
<path d="M8068 7868 c9 -9 15 -9 24 0 9 9 7 12 -12 12 -19 0 -21 -3 -12 -12z"/>
<path d="M7150 7850 c0 -6 30 -10 73 -9 49 0 66 3 52 9 -28 12 -125 12 -125 0z"/>
<path d="M8275 7850 c-4 -6 17 -10 57 -9 50 1 57 3 33 9 -44 11 -83 11 -90 0z"/>
<path d="M4287 7836 c-10 -26 -8 -96 3 -96 14 0 24 68 13 93 -9 19 -10 19 -16
3z"/>
<path d="M6418 7843 c-10 -2 -18 -9 -18 -14 0 -11 35 -10 105 1 50 7 50 7 10
9 -22 1 -49 3 -60 5 -11 2 -28 2 -37 -1z"/>
<path d="M6805 7841 l-70 -6 99 -8 c65 -5 103 -4 110 3 5 5 8 10 6 10 -3 1
-21 2 -40 4 -19 2 -66 0 -105 -3z"/>
<path d="M8120 7836 c0 -10 9 -16 25 -16 14 0 25 5 25 10 0 6 -4 10 -9 10 -5
0 -16 3 -25 6 -11 4 -16 1 -16 -10z"/>
<path d="M5226 7824 c-3 -9 -6 -25 -6 -36 0 -17 3 -18 15 -8 17 14 20 46 6 54
-5 3 -12 -1 -15 -10z"/>
<path d="M7342 7811 c-17 -11 78 -24 103 -14 18 6 17 7 -1 14 -26 10 -86 11
-102 0z"/>
<path d="M8515 7810 c-13 -5 27 -9 108 -9 71 -1 126 2 123 7 -6 10 -207 12
-231 2z"/>
<path d="M9055 7810 c-6 -9 13 -11 110 -13 11 0 29 1 40 2 17 3 17 4 -5 11
-36 12 -138 12 -145 0z"/>
<path d="M6323 7803 c-20 -7 -15 -23 6 -23 28 0 52 11 45 21 -6 10 -31 11 -51
2z"/>
<path d="M6997 7804 c-15 -15 8 -24 59 -24 52 0 71 11 38 24 -21 8 -89 8 -97
0z"/>
<path d="M8185 7800 c-3 -6 1 -13 10 -16 19 -8 30 0 20 15 -8 14 -22 14 -30 1z"/>
<path d="M7482 7771 c-19 -12 19 -21 92 -21 51 0 57 2 46 15 -14 17 -115 21
-138 6z"/>
<path d="M9226 7771 c-7 -11 28 -21 78 -21 33 0 37 2 26 15 -14 16 -95 21
-104 6z"/>
<path d="M7130 7756 c0 -10 16 -17 46 -22 25 -3 48 -12 50 -19 3 -7 21 -16 41
-20 20 -3 47 -14 62 -24 46 -30 65 -41 99 -56 17 -9 32 -19 32 -24 0 -5 16
-15 35 -21 19 -6 35 -15 35 -20 0 -5 16 -14 36 -20 19 -7 38 -18 41 -26 3 -8
11 -14 19 -14 8 0 22 -9 31 -20 10 -11 23 -20 29 -20 6 0 33 -17 60 -39 27
-21 63 -46 79 -55 17 -9 44 -25 60 -36 17 -11 44 -27 61 -34 17 -8 36 -22 44
-30 7 -9 20 -16 30 -16 9 0 25 -9 35 -20 10 -11 24 -20 30 -20 7 0 48 -18 91
-39 165 -82 315 -136 464 -169 25 -6 65 -18 90 -27 67 -26 524 -26 590 -1 66
25 331 91 430 106 36 6 106 17 156 25 49 8 130 15 178 15 95 0 105 9 46 39
-72 37 -126 60 -160 70 -19 5 -54 17 -77 25 -37 14 -116 16 -590 13 l-548 -2
-40 23 c-22 12 -47 22 -56 22 -31 0 -114 75 -142 129 -32 63 -33 66 -7 116 11
22 20 45 20 52 0 7 4 13 10 13 5 0 17 8 27 19 32 33 112 43 252 31 69 -6 149
-18 177 -26 64 -18 388 -20 431 -3 16 7 69 11 121 10 95 -2 125 11 51 23 -23
4 -51 13 -62 21 -12 8 -33 15 -48 15 -14 0 -38 9 -52 20 -26 21 -101 28 -111
11 -3 -5 11 -16 32 -24 44 -19 48 -19 -153 -17 -253 3 -378 9 -384 19 -6 9
-93 16 -161 13 -27 -2 -31 -5 -20 -12 11 -7 6 -10 -20 -11 -53 -1 -84 -8 -99
-23 -10 -11 -21 -12 -45 -4 -17 6 -61 9 -97 9 -61 -2 -66 -1 -77 24 -7 14 -16
24 -21 20 -5 -3 -12 4 -16 15 -11 35 -24 22 -27 -27 -3 -44 -5 -48 -35 -54
-57 -11 -230 5 -251 24 -12 11 -36 17 -66 17 -26 0 -66 9 -90 19 -47 22 -152
30 -180 14 -16 -9 -15 -11 12 -22 17 -7 38 -12 48 -11 49 5 64 0 64 -22 0 -19
-2 -20 -10 -8 -8 12 -13 13 -30 2 -16 -10 -20 -10 -20 0 0 9 -4 8 -11 -2 -8
-11 -12 -12 -16 -2 -2 6 -9 12 -14 12 -6 0 -7 -4 -4 -10 3 -5 -1 -10 -10 -10
-9 0 -13 5 -10 10 4 6 -14 10 -44 11 -28 1 -59 2 -68 2 -10 1 -17 -4 -16 -10
2 -7 -6 -11 -17 -10 -11 1 -20 4 -20 8 0 7 -42 21 -71 24 -8 1 -26 9 -40 18
-13 9 -41 17 -62 19 -20 1 -37 5 -37 8 0 12 -50 30 -80 30 -19 0 -30 -5 -30
-14z m447 -92 c-3 -3 -12 -4 -19 -1 -8 3 -5 6 6 6 11 1 17 -2 13 -5z m816 -1
c-7 -2 -19 -2 -25 0 -7 3 -2 5 12 5 14 0 19 -2 13 -5z"/>
<path d="M6525 7744 c-89 -14 -175 -57 -217 -108 -20 -24 -25 -127 -7 -172 26
-70 126 -122 279 -144 30 -5 82 -15 115 -24 32 -9 67 -16 78 -16 10 0 35 -9
55 -19 20 -11 64 -32 97 -48 33 -15 87 -46 120 -67 68 -45 233 -175 254 -200
47 -56 186 -112 248 -100 17 3 43 16 59 29 27 22 29 28 29 93 0 62 -3 72 -25
91 -39 33 -63 40 -176 50 -94 8 -154 27 -154 47 0 18 27 48 90 99 96 79 151
104 223 105 31 0 57 4 57 8 0 18 -50 52 -195 133 -168 95 -236 129 -256 129
-8 0 -27 7 -44 16 -16 9 -55 22 -85 30 -30 7 -98 24 -150 38 -73 20 -126 27
-230 30 -74 3 -148 2 -165 0z"/>
<path d="M6420 6650 c-52 -4 -113 -14 -135 -23 -22 -9 -52 -18 -67 -22 -16 -3
-28 -10 -28 -15 0 -6 140 -10 385 -10 212 0 385 4 385 9 0 4 -35 20 -77 34
-65 21 -102 26 -223 30 -80 3 -188 1 -240 -3z"/>
<path d="M4740 6590 c-13 -23 -4 -88 15 -110 7 -8 16 -29 19 -46 4 -18 16 -40
27 -50 10 -9 19 -21 19 -26 0 -36 233 -283 320 -338 13 -8 30 -22 39 -30 9 -8
39 -30 66 -48 60 -38 89 -60 117 -84 11 -9 30 -20 41 -24 12 -4 41 -21 66 -38
25 -17 57 -37 71 -44 14 -7 43 -24 65 -37 22 -14 51 -29 65 -35 14 -5 32 -15
40 -20 8 -6 26 -15 40 -20 32 -13 36 -16 85 -45 69 -41 158 -85 171 -85 8 0
28 -9 46 -20 18 -11 41 -20 51 -20 10 0 20 -7 23 -15 3 -8 25 -20 47 -26 23
-6 50 -17 61 -25 11 -8 29 -14 38 -14 33 0 126 -59 132 -84 3 -13 5 -67 5
-120 0 -80 3 -104 21 -138 13 -26 21 -59 21 -92 0 -28 9 -69 19 -91 10 -22 20
-74 24 -115 3 -42 12 -95 21 -119 22 -64 22 -455 -1 -509 -8 -20 -18 -75 -21
-122 -4 -56 -13 -95 -25 -115 -23 -38 -24 -130 -1 -186 15 -38 15 -43 0 -69
-10 -16 -17 -37 -17 -47 0 -10 -7 -28 -15 -40 -38 -54 -36 -250 2 -311 55 -87
151 -172 196 -172 8 0 26 -9 40 -20 32 -25 147 -29 167 -5 7 8 30 20 52 26 22
6 47 16 56 22 44 34 111 108 136 151 27 46 29 58 30 151 1 105 -3 121 -63 242
-13 29 -14 37 -2 65 23 54 26 154 5 186 -12 18 -19 53 -22 107 -3 47 -11 92
-21 110 -14 25 -16 68 -16 280 0 219 2 254 18 282 11 20 17 54 17 92 0 37 8
80 20 111 11 28 20 74 20 104 0 39 6 60 21 80 18 22 20 40 20 124 -1 145 3
157 57 187 25 14 57 28 71 31 14 4 35 12 47 19 11 8 40 18 62 25 23 6 42 15
42 20 0 5 18 15 40 21 22 7 45 18 51 26 6 7 20 13 30 13 10 0 58 21 106 47 79
42 216 115 298 158 17 9 46 26 67 38 20 12 66 39 103 61 64 36 90 54 120 83 8
7 24 17 37 23 60 26 216 156 331 275 69 71 160 196 172 237 4 13 16 37 26 54
21 35 25 94 7 112 -17 17 -156 15 -253 -3 -44 -9 -186 -20 -315 -25 -238 -10
-368 -23 -404 -42 -18 -10 -19 -11 -2 -23 19 -14 111 -12 271 6 50 5 173 14
275 19 102 6 226 16 275 24 50 8 93 12 98 9 13 -8 7 -45 -13 -73 -19 -27 -24
-28 -132 -35 -62 -4 -135 -11 -163 -17 -27 -5 -169 -16 -315 -24 -146 -9 -323
-20 -395 -24 -152 -10 -1732 -14 -1815 -4 -44 5 -66 2 -94 -11 -43 -21 -45
-32 -8 -42 15 -5 470 -8 1012 -8 885 1 997 3 1100 18 63 10 213 22 332 27 121
6 245 17 280 25 131 31 172 14 126 -50 -36 -51 -155 -172 -249 -252 -83 -72
-332 -243 -412 -283 -23 -12 -62 -34 -87 -50 -53 -33 -242 -130 -255 -130 -4
0 -16 -6 -24 -14 -17 -14 -65 -39 -141 -73 -25 -11 -66 -30 -93 -41 -26 -12
-54 -22 -61 -22 -7 0 -24 -9 -38 -19 -13 -11 -38 -23 -54 -27 -16 -4 -41 -14
-55 -22 -36 -21 -55 -11 -62 33 -7 46 -102 165 -159 201 -22 14 -73 33 -113
41 -68 15 -80 15 -150 0 -93 -21 -140 -49 -201 -124 -49 -61 -74 -108 -74
-143 0 -15 -7 -20 -24 -20 -14 0 -28 4 -31 10 -3 5 -25 14 -48 21 -23 6 -49
17 -57 24 -8 7 -35 21 -60 30 -93 35 -108 41 -122 53 -8 6 -29 15 -47 18 -17
4 -34 11 -37 15 -3 5 -20 16 -37 24 -18 8 -39 19 -47 24 -8 5 -45 24 -82 41
-37 17 -70 35 -73 40 -3 5 -18 11 -34 15 -16 3 -35 13 -42 21 -7 8 -26 22 -43
30 -98 45 -353 211 -470 305 -75 59 -214 197 -266 263 -46 59 -38 71 42 70 37
-1 82 -7 100 -13 18 -6 135 -15 259 -21 202 -9 345 -22 389 -35 40 -12 52 44
12 60 -9 4 -132 13 -272 20 -141 7 -283 18 -315 24 -33 5 -107 13 -165 16
-117 8 -150 24 -150 76 0 34 8 37 79 27 152 -19 544 -50 665 -52 67 -1 82 13
41 40 -21 14 -67 18 -263 25 -130 5 -275 15 -322 24 -47 8 -120 15 -162 15
-67 0 -79 -3 -88 -20z m2087 -952 c59 -11 71 -17 134 -76 38 -35 69 -70 69
-77 0 -7 9 -32 20 -56 33 -74 22 -171 -26 -228 -24 -28 -234 -141 -263 -141
-20 0 -222 101 -249 125 -35 29 -50 64 -57 131 -6 51 -3 69 20 124 43 104 122
177 215 196 72 16 63 16 137 2z m-216 -566 c129 -64 166 -72 209 -48 61 35
214 106 226 106 19 0 18 -14 -7 -63 -52 -101 -99 -139 -215 -172 -56 -15 -64
-15 -124 0 -112 29 -168 74 -219 174 -20 39 -22 78 -3 69 4 -2 64 -31 133 -66z
m-31 -188 c22 -19 139 -54 180 -54 41 0 158 35 180 54 8 7 28 16 44 20 25 6
28 5 21 -11 -3 -10 -13 -54 -20 -98 -7 -44 -19 -93 -25 -110 -9 -21 -12 -113
-12 -310 0 -235 2 -287 16 -325 9 -25 20 -72 23 -105 3 -33 12 -72 19 -87 18
-35 18 -109 0 -145 -8 -15 -19 -40 -24 -54 -18 -47 -93 -99 -161 -111 -141
-26 -244 25 -294 146 -30 75 -33 111 -13 161 8 18 17 60 21 92 4 32 14 83 23
113 25 83 24 551 -1 629 -9 30 -17 71 -17 92 0 20 -7 56 -15 79 -8 23 -15 44
-15 46 0 9 56 -9 70 -22z m-11 -1333 c113 -89 275 -87 387 4 49 40 64 44 64
14 0 -49 -65 -118 -140 -148 -54 -22 -175 -26 -215 -7 -18 9 -37 16 -41 16
-39 0 -133 113 -120 145 8 21 11 20 65 -24z m61 -178 c121 -45 274 -20 365 60
51 44 62 46 71 11 22 -88 -49 -259 -129 -307 -47 -29 -135 -57 -177 -57 -106
0 -217 72 -272 177 -30 59 -44 155 -29 196 l11 28 49 -42 c27 -23 77 -53 111
-66z"/>
<path d="M6045 6530 c-52 -4 -60 -8 -63 -26 -3 -20 2 -22 75 -28 146 -11 1170
-19 1188 -9 15 9 11 14 -27 36 l-44 25 -534 4 c-294 1 -562 1 -595 -2z"/>
<path d="M2477 10063 c-14 -21 -42 -60 -61 -88 -53 -76 -42 -108 24 -70 14 8
32 14 40 15 21 0 174 -117 178 -137 2 -8 -2 -19 -10 -24 -16 -11 -249 0 -264
13 -7 4 -14 22 -18 38 -7 38 -38 40 -63 4 -10 -14 -36 -49 -59 -77 -22 -29
-43 -59 -46 -67 -4 -8 -34 -51 -67 -95 -75 -98 -77 -121 -10 -117 51 3 71 -8
183 -100 69 -56 106 -86 252 -197 49 -38 114 -92 143 -119 47 -44 53 -54 49
-82 -3 -17 0 -33 5 -37 14 -8 56 18 63 39 3 10 23 39 45 64 53 61 49 79 -17
79 -42 0 -59 6 -108 40 -32 22 -83 62 -114 88 -30 27 -66 56 -81 65 -14 9 -52
40 -83 69 -32 28 -70 58 -85 65 -16 7 -29 23 -31 34 -3 21 1 22 185 29 103 4
247 5 318 3 185 -8 228 -29 218 -110 -5 -33 -3 -38 13 -37 23 1 144 160 144
189 0 19 -4 20 -47 15 -46 -6 -51 -5 -109 42 -33 26 -96 76 -140 110 -43 33
-97 77 -119 95 -22 19 -66 54 -98 77 -96 70 -147 124 -147 155 0 71 -43 86
-83 29z"/>
<path d="M11053 9983 c-7 -3 -13 -13 -13 -23 0 -9 -6 -22 -12 -28 -7 -5 -92
-37 -188 -70 -96 -33 -254 -88 -350 -121 -155 -55 -181 -61 -226 -56 -39 5
-54 2 -64 -9 -8 -11 -9 -20 -3 -28 6 -7 31 -39 56 -70 25 -31 48 -65 51 -76 7
-22 52 -46 61 -32 3 5 3 21 -1 35 -4 17 -1 32 10 44 23 25 172 84 215 85 32 1
38 -3 55 -39 14 -28 21 -66 24 -125 3 -74 0 -91 -20 -129 -34 -63 -67 -86
-101 -70 -29 13 -57 6 -57 -14 0 -8 17 -36 39 -63 21 -27 65 -89 98 -139 66
-98 96 -130 112 -120 6 3 11 18 11 32 0 31 34 92 104 188 80 109 158 225 236
350 71 116 117 170 146 175 51 9 41 37 -56 172 -90 125 -103 139 -127 131z
m-120 -219 c9 -9 -9 -41 -53 -94 -20 -25 -42 -55 -49 -67 -17 -34 -38 -28 -61
17 -27 53 -26 88 3 99 12 5 45 18 72 30 52 21 77 25 88 15z"/>
<path d="M1691 8814 c-12 -25 -21 -53 -21 -61 0 -7 -9 -31 -20 -53 -33 -65
-19 -101 24 -61 34 32 90 28 172 -13 67 -33 100 -47 212 -86 29 -11 97 -40
153 -66 88 -42 103 -53 126 -91 22 -38 25 -52 20 -98 -6 -61 -21 -88 -74 -130
-47 -37 -108 -40 -173 -8 -46 22 -99 43 -205 83 -33 13 -91 37 -130 55 -38 17
-87 37 -107 44 -41 14 -78 53 -78 82 0 12 -7 19 -19 19 -14 0 -24 -16 -41 -62
-12 -35 -33 -88 -46 -119 -13 -31 -24 -63 -24 -71 0 -8 -7 -23 -15 -34 -15
-20 -20 -66 -8 -77 3 -4 18 0 31 9 44 29 126 8 322 -84 25 -12 77 -33 115 -47
39 -14 84 -32 100 -40 38 -18 110 -34 155 -35 99 0 185 64 244 183 85 173 71
372 -33 455 -49 38 -106 72 -121 72 -8 0 -45 15 -84 34 -39 18 -105 46 -146
61 -188 68 -252 103 -266 146 -17 51 -39 48 -63 -7z"/>
<path d="M11518 8710 c-27 -18 -62 -55 -80 -84 l-33 -51 -5 -190 c-4 -156 -8
-196 -23 -222 -50 -92 -205 -27 -223 94 -4 25 -4 75 -1 111 8 79 50 156 115
209 75 62 47 103 -35 50 -47 -31 -100 -60 -215 -119 -32 -16 -58 -33 -58 -36
0 -4 11 -23 24 -42 27 -41 42 -85 51 -155 15 -108 88 -247 172 -327 45 -43
120 -72 183 -71 77 1 126 17 190 61 83 56 94 96 95 327 0 155 3 185 17 207 22
34 75 45 115 26 46 -22 65 -71 60 -154 -6 -80 -23 -127 -61 -168 -15 -15 -25
-33 -23 -40 6 -19 48 -19 70 2 12 10 36 26 52 34 81 41 115 63 120 80 4 9 -5
36 -18 60 -15 27 -27 68 -32 108 -9 88 -63 199 -119 244 -69 56 -103 69 -201
73 -87 4 -91 3 -137 -27z"/>
<path d="M1610 6946 c-120 -41 -166 -72 -245 -166 -55 -64 -80 -116 -106 -219
-43 -166 -5 -343 102 -477 78 -98 161 -149 288 -178 92 -20 127 -20 221 3 175
42 285 143 361 331 31 78 34 94 34 190 0 96 -3 112 -34 190 -72 178 -167 271
-331 324 -103 33 -197 34 -290 2z"/>
<path d="M11650 6946 c-98 -32 -142 -59 -210 -130 -66 -67 -114 -144 -125
-199 -4 -17 -13 -51 -21 -75 -21 -64 -17 -165 10 -262 30 -108 66 -171 136
-240 77 -78 149 -115 259 -136 87 -17 95 -17 182 0 194 37 299 128 395 341 26
59 32 273 9 335 -9 25 -19 56 -22 70 -17 72 -149 217 -235 258 -133 64 -261
77 -378 38z"/>
<path d="M2150 4911 c-135 -36 -272 -139 -324 -244 -80 -164 -95 -250 -57
-331 10 -23 31 -70 47 -106 93 -220 186 -405 203 -405 6 0 19 15 29 34 9 19
35 44 57 57 76 45 279 144 295 144 9 0 25 -7 36 -15 29 -22 54 -19 54 7 0 12
-19 61 -41 108 -23 47 -56 114 -73 150 -39 80 -69 93 -83 34 -7 -33 -16 -42
-78 -74 -39 -20 -101 -53 -138 -73 -93 -50 -135 -49 -162 4 -19 36 -19 97 1
166 23 77 149 207 249 255 66 31 76 33 180 33 101 0 113 -2 143 -25 57 -43 76
-85 75 -170 -1 -81 -16 -129 -58 -185 -28 -36 -30 -68 -4 -73 9 -2 50 22 90
53 41 30 89 62 107 71 45 21 50 40 19 72 -14 15 -35 60 -47 102 -71 239 -136
325 -299 397 -86 37 -124 40 -221 14z"/>
<path d="M11056 4894 c-9 -8 -16 -21 -16 -29 0 -7 -17 -48 -38 -91 -56 -115
-72 -153 -72 -168 0 -9 16 -17 39 -21 35 -6 61 -28 218 -188 98 -100 206 -208
240 -242 86 -84 133 -143 133 -169 0 -12 7 -31 15 -42 15 -18 16 -18 40 11 14
17 25 35 25 40 0 6 16 47 37 93 20 45 33 85 29 89 -3 4 -21 1 -39 -5 -19 -7
-42 -12 -53 -12 -26 0 -174 149 -174 176 0 28 52 96 98 127 47 33 121 48 171
35 47 -13 61 -25 61 -53 0 -68 31 -72 61 -7 12 26 38 83 59 127 71 151 80 171
80 188 0 25 -14 28 -59 10 -36 -14 -51 -15 -104 -5 -34 6 -91 14 -127 18 -36
3 -92 12 -125 19 -33 7 -89 16 -125 20 -36 3 -102 15 -148 26 -45 10 -95 19
-111 19 -16 0 -37 10 -51 25 -27 29 -42 31 -64 9z m282 -339 c29 -9 56 -23 59
-31 8 -20 -55 -84 -81 -84 -25 0 -136 105 -136 127 0 13 9 15 53 10 28 -4 76
-14 105 -22z"/>
<path d="M10559 3973 c-48 -59 -110 -136 -138 -171 -28 -34 -51 -67 -51 -72 0
-6 13 -13 30 -16 34 -7 49 -23 66 -68 7 -17 22 -56 34 -86 27 -67 36 -110 22
-110 -5 0 -34 11 -63 24 -30 14 -75 28 -101 31 -52 8 -64 18 -70 55 -2 16 -10
26 -24 28 -17 2 -38 -17 -93 -85 -39 -48 -100 -122 -136 -163 -36 -41 -68 -81
-72 -89 -8 -19 21 -39 50 -34 17 3 58 -28 183 -139 88 -79 213 -190 277 -247
96 -85 117 -109 117 -132 0 -77 30 -77 96 -2 87 101 107 133 93 149 -10 13
-15 12 -35 -1 -39 -25 -59 -18 -132 48 -38 34 -116 103 -173 152 -162 141
-184 164 -171 177 8 8 33 6 94 -10 46 -12 121 -31 168 -43 47 -11 108 -27 136
-35 71 -20 104 -18 104 4 0 20 -32 105 -73 192 -14 30 -32 73 -40 95 -8 22
-24 65 -37 95 -31 76 -35 100 -19 100 19 -1 159 -120 356 -305 l75 -70 -6 -47
c-9 -65 22 -77 55 -23 18 30 114 147 180 219 52 57 73 92 64 106 -8 13 -42 13
-50 0 -20 -33 -104 12 -214 113 -37 34 -127 116 -200 181 -163 147 -179 166
-183 231 -2 35 -8 51 -18 53 -9 1 -50 -40 -101 -105z"/>
<path d="M3096 3795 c-3 -8 0 -27 6 -40 16 -36 1 -54 -241 -290 -230 -225
-251 -255 -251 -362 0 -53 6 -73 40 -140 22 -42 53 -90 68 -106 55 -58 148
-116 212 -133 117 -30 146 -12 440 276 l195 191 53 -6 c46 -6 52 -4 52 12 0
10 -21 39 -46 63 -25 25 -54 60 -66 78 -14 24 -26 32 -42 30 -11 -2 -20 -8
-20 -13 1 -6 4 -25 8 -43 6 -33 1 -38 -209 -245 -118 -116 -228 -219 -243
-229 -36 -25 -107 -18 -160 16 -62 39 -72 60 -72 146 l1 75 87 90 c48 50 151
152 229 228 131 127 144 137 170 131 86 -23 89 -3 11 78 -35 36 -90 97 -123
136 -59 70 -87 87 -99 57z"/>
<path d="M4020 2876 c0 -8 5 -27 10 -41 9 -24 2 -42 -50 -142 -34 -63 -76
-138 -94 -166 -19 -29 -50 -84 -71 -122 -20 -39 -63 -115 -96 -169 -47 -81
-64 -102 -90 -110 -18 -6 -34 -16 -36 -22 -2 -6 35 -34 82 -63 90 -55 123 -60
110 -18 -19 59 -16 74 26 152 23 44 50 97 61 117 10 20 22 39 27 43 6 3 25 36
44 73 51 99 98 185 110 200 27 34 50 -61 62 -263 4 -55 13 -144 21 -197 21
-145 19 -229 -7 -262 -12 -15 -30 -26 -44 -26 -13 0 -31 -7 -40 -16 -15 -15
-15 -18 1 -35 9 -11 20 -19 25 -19 4 0 37 -18 73 -40 36 -22 72 -40 80 -40 24
0 28 18 10 49 -17 28 -16 29 31 117 26 49 54 103 63 119 8 17 27 48 42 70 15
22 44 72 65 110 21 39 47 87 59 107 102 179 102 178 152 178 50 0 34 60 -20
76 -11 4 -40 22 -63 40 -38 31 -80 43 -96 28 -3 -4 0 -19 8 -35 8 -15 15 -38
15 -51 0 -28 -86 -200 -105 -210 -20 -12 -25 1 -35 94 -15 124 -13 185 6 200
42 34 55 50 51 61 -2 7 -31 28 -64 47 -34 19 -69 42 -79 52 -11 9 -40 27 -66
41 -26 14 -68 39 -93 56 -49 33 -85 40 -85 17z"/>
<path d="M9480 2856 c-37 -13 -144 -77 -214 -127 -50 -36 -248 -168 -285 -190
-39 -24 -40 -49 -1 -49 23 0 40 -9 61 -31 16 -17 29 -35 29 -39 0 -8 125 -216
144 -240 7 -8 18 -26 24 -40 7 -14 18 -34 25 -45 43 -72 66 -109 114 -181 53
-81 62 -107 43 -119 -16 -10 -12 -55 5 -55 8 0 56 28 107 63 51 35 114 75 141
90 31 18 47 35 47 47 0 11 -3 20 -7 21 -5 0 -21 2 -37 3 -38 2 -58 27 -136
166 -14 25 -35 59 -47 77 -26 35 -30 68 -9 76 22 9 193 -79 263 -135 63 -50
83 -82 64 -101 -15 -15 -14 -37 3 -43 12 -5 64 26 176 104 19 13 59 39 88 58
58 38 71 74 28 74 -40 0 -67 15 -148 83 -77 65 -178 137 -193 137 -4 0 -32 11
-62 25 -46 22 -53 30 -53 54 0 15 8 43 17 62 11 22 17 56 17 95 -1 134 -89
202 -204 160z m-39 -215 c35 -34 39 -44 39 -88 0 -48 -31 -158 -49 -176 -13
-13 -49 1 -56 23 -3 10 -18 34 -33 53 -16 19 -39 55 -52 80 l-25 46 21 28 c19
26 88 72 108 73 4 0 26 -17 47 -39z"/>
<path d="M5327 2234 c-4 -4 -4 -23 -1 -43 5 -31 0 -45 -38 -99 -23 -35 -47
-71 -53 -80 -5 -10 -26 -42 -45 -72 -19 -30 -39 -62 -45 -71 -5 -9 -32 -50
-60 -90 -27 -41 -64 -98 -82 -127 -50 -83 -112 -151 -155 -173 -39 -20 -45
-36 -17 -50 33 -17 186 -71 204 -73 27 -2 31 29 6 60 -12 15 -21 33 -21 41 0
20 84 162 115 196 14 15 32 27 39 27 8 0 40 -19 72 -43 70 -52 104 -111 111
-197 6 -59 5 -60 -32 -94 -50 -46 -45 -69 18 -78 27 -3 54 -11 60 -17 7 -5 48
-19 91 -31 44 -11 87 -25 97 -30 23 -13 66 -13 74 0 3 5 -3 22 -14 37 -18 26
-19 53 -26 430 -6 398 -6 403 15 431 28 37 18 59 -34 73 -22 6 -61 18 -86 25
-25 8 -70 20 -100 28 -30 8 -62 17 -71 21 -8 3 -18 3 -22 -1z m31 -383 c3
-131 -2 -138 -72 -90 -56 37 -64 52 -42 82 9 12 32 46 52 75 19 29 41 51 47
49 8 -2 13 -41 15 -116z"/>
<path d="M8180 2209 c-36 -11 -92 -27 -125 -36 -103 -28 -129 -58 -84 -99 24
-21 24 -47 0 -479 -13 -248 -24 -325 -54 -376 -33 -57 -17 -66 74 -39 41 11
97 26 124 33 39 10 50 17 50 32 0 14 -8 21 -27 23 -48 6 -58 34 -58 159 0 124
6 138 63 148 18 3 64 -1 102 -10 79 -18 121 -51 150 -115 17 -38 17 -40 -5
-81 -20 -39 -20 -44 -5 -55 12 -9 26 -9 63 3 26 8 81 25 122 38 134 40 175 59
178 81 2 16 -5 25 -28 34 -20 8 -45 34 -68 69 -19 31 -52 81 -71 111 -20 30
-41 64 -48 75 -20 35 -131 216 -190 310 -40 65 -56 101 -58 130 -3 62 -4 65
-22 64 -10 0 -47 -9 -83 -20z m-27 -356 c18 -38 41 -80 51 -96 27 -41 8 -60
-53 -51 -67 10 -71 16 -71 104 0 133 22 146 73 43z"/>
<path d="M6357 1993 c-12 -11 -8 -19 23 -51 l30 -32 0 -373 0 -373 -30 -29
c-31 -30 -37 -49 -20 -60 5 -3 129 -6 274 -5 233 0 271 3 320 20 99 34 141 71
210 183 20 33 46 178 46 262 0 73 -25 157 -75 252 -50 94 -125 155 -231 189
-70 22 -90 24 -308 24 -128 0 -236 -3 -239 -7z m450 -119 c29 -18 76 -78 110
-139 26 -47 27 -58 31 -211 5 -190 -1 -208 -85 -291 -54 -53 -99 -72 -142 -58
-51 16 -51 13 -51 360 l0 324 27 21 c29 23 68 21 110 -6z"/>
</g>
</svg>
